<svg width="283" height="64" viewBox="0 0 283 64" fill="none" xmlns="http://www.w3.org/2000/svg">
<path fill-rule="evenodd" clip-rule="evenodd" d="M37.1988 4.94701C37.4719 2.50757 35.7424 0.304789 33.303 0.0317174C30.8635 -0.259559 28.6608 1.4881 28.3877 3.92754C28.06 6.71287 28.5151 10.0443 29.0977 13.4668C30.7179 13.9584 32.2835 14.6684 33.7399 15.5058C35.3055 11.8102 36.8347 8.15105 37.1988 4.94701ZM54.3295 15.6514C53.3646 13.394 50.7432 12.3746 48.4858 13.3394C45.5184 14.632 42.4418 17.1624 39.347 19.7657C40.5121 20.9126 41.6044 22.2051 42.5328 23.6069C46.0463 23.17 49.4142 22.6421 52.0175 21.5134C54.2749 20.5121 55.3126 17.8906 54.3295 15.6514ZM46.8473 3.74549C44.8812 2.28911 42.0959 2.68961 40.6395 4.65573C38.4185 7.64131 36.9257 12.1015 35.3055 16.4524C35.8516 16.8165 36.3614 17.1806 36.8529 17.5629C37.217 17.8542 37.5993 18.1637 37.9816 18.4732C41.6954 15.6696 45.5548 12.9389 47.7758 9.95332C49.2322 7.98721 48.8134 5.20187 46.8473 3.74549Z" fill="white"/>
<path d="M38.4004 39.3905C37.035 40.865 35.5786 42.2304 34.0312 43.5594C31.8649 45.4344 29.6621 47.2549 27.4229 49.0026C25.0199 47.528 23.2904 46.7816 22.9991 47.1639C22.7443 47.5098 23.7455 48.7841 25.5478 50.4408C19.5038 54.9373 13.1139 58.906 6.25073 62.1646C5.17665 62.6744 4.04795 63.0385 2.93746 63.439C2.64618 63.5482 2.3367 63.5482 2.20927 63.5664C0.461608 63.7667 -0.0663309 63.2933 0.00648821 61.6913C0.224946 56.7032 1.77235 52.0246 3.37437 47.3642C3.81129 46.0898 4.26641 44.8155 4.73973 43.5411C7.16097 45.0157 8.89042 45.7803 9.1817 45.398C9.49118 44.9793 8.0348 43.3045 5.59536 41.2109C7.34301 36.6961 9.29093 32.2542 11.5847 27.9943C16.1723 31.3986 20.2502 33.6377 20.7053 33.0188C21.1604 32.3998 17.7926 29.1048 13.1503 25.6641L12.9501 25.5184C13.7511 24.1531 14.5885 22.7877 15.4806 21.4587C16.591 19.7839 17.9564 18.2547 19.3036 16.7619C21.1058 14.7776 23.436 14.104 26.0393 14.6866C34.3771 16.5435 40.1662 21.3313 42.897 29.5417C43.4431 31.2165 42.9516 32.8549 42.0959 34.3659C41.5134 35.3854 40.8762 36.3503 40.1662 37.2605C35.7607 34.0383 31.9377 31.9629 31.5008 32.5455C31.082 33.128 34.1222 36.1318 38.4004 39.3905Z" fill="white"/>
<path d="M83.7883 48.7847C81.3349 48.7847 79.2149 48.278 77.4283 47.2647C75.6416 46.2514 74.2683 44.798 73.3083 42.9047C72.3483 41.0114 71.8683 38.7714 71.8683 36.1847C71.8683 33.3047 72.4416 30.8114 73.5883 28.7047C74.7349 26.598 76.3749 24.9847 78.5083 23.8647C80.6416 22.718 83.1616 22.1447 86.0683 22.1447C87.1083 22.1447 88.2149 22.2247 89.3883 22.3847C90.5616 22.518 91.5616 22.6647 92.3883 22.8247C93.2149 22.9847 93.7483 23.0914 93.9883 23.1447L94.2683 23.6647C94.2149 23.8247 94.1216 24.238 93.9883 24.9047C93.8549 25.5447 93.7083 26.4114 93.5483 27.5047C93.4149 28.5714 93.3083 29.718 93.2283 30.9447L89.3883 31.2247C89.4149 31.118 89.4416 30.8647 89.4683 30.4647C89.4949 30.0647 89.5083 29.5847 89.5083 29.0247C89.5083 27.9047 89.1616 27.118 88.4683 26.6647C87.8016 26.1847 86.6816 25.9447 85.1083 25.9447C82.6816 25.9447 80.8683 26.678 79.6683 28.1447C78.4683 29.5847 77.8683 31.8114 77.8683 34.8247C77.8683 38.1047 78.4683 40.6514 79.6683 42.4647C80.8949 44.2514 82.5883 45.1447 84.7483 45.1447C85.4683 45.1447 86.1216 45.0647 86.7083 44.9047C87.2949 44.7447 87.7483 44.5847 88.0683 44.4247C88.4149 44.238 88.6283 44.118 88.7083 44.0647V40.2647C88.7083 39.4914 88.5883 38.9847 88.3483 38.7447C88.1083 38.478 87.6283 38.3447 86.9083 38.3447H84.8283L84.6283 38.0247L85.0283 35.1847C85.6683 35.1847 86.2149 35.198 86.6683 35.2247C88.1616 35.278 89.4683 35.3047 90.5883 35.3047C91.4149 35.3047 92.2283 35.278 93.0283 35.2247C93.8283 35.1714 94.3483 35.1314 94.5883 35.1047L94.8683 36.6247C94.4149 36.918 94.0683 37.2914 93.8283 37.7447C93.6149 38.1714 93.4683 38.798 93.3883 39.6247C93.3083 40.4247 93.2683 41.6114 93.2683 43.1847C93.2683 44.7847 93.3616 45.9447 93.5483 46.6647L93.1883 47.1447C93.1883 47.1714 92.7349 47.3314 91.8283 47.6247C90.9483 47.918 89.8016 48.1847 88.3883 48.4247C87.0016 48.6647 85.4683 48.7847 83.7883 48.7847ZM114.24 48.7847C112.693 48.7847 111.48 47.8247 110.6 45.9047L107.92 40.6647H105.68L105.64 43.7447C105.64 44.4647 105.693 44.9847 105.8 45.3047C105.907 45.598 106.107 45.798 106.4 45.9047C106.72 46.0114 107.253 46.078 108 46.1047L108.16 46.3047L107.8 48.4247C107.373 48.398 106.613 48.3714 105.52 48.3447C104.453 48.3447 103.52 48.3447 102.72 48.3447C101.867 48.3447 100.987 48.3714 100.08 48.4247C99.1735 48.478 98.5868 48.518 98.3201 48.5447L98.6001 46.2247C99.5068 46.118 100.107 45.8914 100.4 45.5447C100.72 45.1714 100.88 44.5447 100.88 43.6647L100.92 31.9447C100.92 31.3847 100.84 31.0114 100.68 30.8247C100.547 30.6114 100.293 30.5047 99.9201 30.5047L98.7601 30.5447L98.5201 30.2647L98.8401 28.2247L103.08 28.2647C104.013 28.2647 105.013 28.2514 106.08 28.2247C107.147 28.1714 107.893 28.1314 108.32 28.1047C110.96 28.1047 112.973 28.5714 114.36 29.5047C115.747 30.438 116.44 31.798 116.44 33.5847C116.44 34.8114 116.067 35.9314 115.32 36.9447C114.573 37.958 113.493 38.8114 112.08 39.5047L114.76 43.6247C115.4 44.558 116 45.238 116.56 45.6647C117.12 46.0914 117.72 46.3047 118.36 46.3047L118.64 46.6647L118.36 48.4647L114.24 48.7847ZM108.64 37.8647C110.427 37.2247 111.32 35.998 111.32 34.1847C111.32 33.118 110.933 32.3314 110.16 31.8247C109.387 31.2914 108.2 31.0247 106.6 31.0247C106.387 31.0247 106.24 31.078 106.16 31.1847C106.107 31.2647 106.067 31.4514 106.04 31.7447C105.88 33.9314 105.8 35.8647 105.8 37.5447L108.64 37.8647ZM120.709 46.3047C121.615 46.198 122.229 45.958 122.549 45.5847C122.869 45.1847 123.029 44.518 123.029 43.5847L123.069 32.1847C123.069 31.518 123.002 31.078 122.869 30.8647C122.735 30.6247 122.455 30.5047 122.029 30.5047L121.069 30.5447L120.829 30.2247L121.109 28.1847C121.535 28.1847 122.349 28.198 123.549 28.2247C124.775 28.2514 126.082 28.2647 127.469 28.2647C132.189 28.2647 135.549 28.1447 137.549 27.9047L137.829 28.2647C137.749 28.6114 137.615 29.3714 137.429 30.5447C137.269 31.6914 137.149 32.878 137.069 34.1047L133.749 34.3047C133.749 34.2247 133.762 34.0647 133.789 33.8247C133.815 33.558 133.829 33.3047 133.829 33.0647C133.829 32.478 133.735 32.0647 133.549 31.8247C133.362 31.5847 133.002 31.4247 132.469 31.3447C131.935 31.238 131.055 31.1847 129.829 31.1847C129.109 31.1847 128.655 31.238 128.469 31.3447C128.309 31.4514 128.215 31.718 128.189 32.1447L127.989 36.6647H130.949C131.429 36.6647 132.109 36.638 132.989 36.5847C133.869 36.5047 134.455 36.4514 134.749 36.4247L135.069 36.7847L134.589 39.6647C134.295 39.6647 133.735 39.6514 132.909 39.6247C132.109 39.598 131.255 39.5847 130.349 39.5847C129.629 39.5847 128.802 39.6514 127.869 39.7847C127.815 41.0647 127.789 42.3714 127.789 43.7047C127.789 44.2914 127.829 44.7047 127.909 44.9447C127.989 45.1847 128.162 45.358 128.429 45.4647C128.695 45.5447 129.149 45.5847 129.789 45.5847C131.122 45.5847 132.095 45.5047 132.709 45.3447C133.322 45.158 133.762 44.838 134.029 44.3847C134.295 43.9047 134.509 43.1314 134.669 42.0647L137.709 41.8247L138.029 42.1847C137.949 42.5047 137.802 43.2514 137.589 44.4247C137.402 45.598 137.242 46.838 137.109 48.1447L136.749 48.5047C136.082 48.478 134.629 48.438 132.389 48.3847C130.175 48.3314 128.175 48.3047 126.389 48.3047C125.135 48.3047 123.922 48.3447 122.749 48.4247C121.575 48.5314 120.815 48.598 120.469 48.6247L120.709 46.3047ZM141.177 46.3047C142.084 46.198 142.697 45.958 143.017 45.5847C143.337 45.1847 143.497 44.518 143.497 43.5847L143.537 32.1847C143.537 31.518 143.471 31.078 143.337 30.8647C143.204 30.6247 142.924 30.5047 142.497 30.5047L141.537 30.5447L141.297 30.2247L141.577 28.1847C142.004 28.1847 142.817 28.198 144.017 28.2247C145.244 28.2514 146.551 28.2647 147.937 28.2647C152.657 28.2647 156.017 28.1447 158.017 27.9047L158.297 28.2647C158.217 28.6114 158.084 29.3714 157.897 30.5447C157.737 31.6914 157.617 32.878 157.537 34.1047L154.217 34.3047C154.217 34.2247 154.231 34.0647 154.257 33.8247C154.284 33.558 154.297 33.3047 154.297 33.0647C154.297 32.478 154.204 32.0647 154.017 31.8247C153.831 31.5847 153.471 31.4247 152.937 31.3447C152.404 31.238 151.524 31.1847 150.297 31.1847C149.577 31.1847 149.124 31.238 148.937 31.3447C148.777 31.4514 148.684 31.718 148.657 32.1447L148.457 36.6647H151.417C151.897 36.6647 152.577 36.638 153.457 36.5847C154.337 36.5047 154.924 36.4514 155.217 36.4247L155.537 36.7847L155.057 39.6647C154.764 39.6647 154.204 39.6514 153.377 39.6247C152.577 39.598 151.724 39.5847 150.817 39.5847C150.097 39.5847 149.271 39.6514 148.337 39.7847C148.284 41.0647 148.257 42.3714 148.257 43.7047C148.257 44.2914 148.297 44.7047 148.377 44.9447C148.457 45.1847 148.631 45.358 148.897 45.4647C149.164 45.5447 149.617 45.5847 150.257 45.5847C151.591 45.5847 152.564 45.5047 153.177 45.3447C153.791 45.158 154.231 44.838 154.497 44.3847C154.764 43.9047 154.977 43.1314 155.137 42.0647L158.177 41.8247L158.497 42.1847C158.417 42.5047 158.271 43.2514 158.057 44.4247C157.871 45.598 157.711 46.838 157.577 48.1447L157.217 48.5047C156.551 48.478 155.097 48.438 152.857 48.3847C150.644 48.3314 148.644 48.3047 146.857 48.3047C145.604 48.3047 144.391 48.3447 143.217 48.4247C142.044 48.5314 141.284 48.598 140.937 48.6247L141.177 46.3047ZM177.566 31.8247C177.539 31.318 177.446 30.9714 177.286 30.7847C177.126 30.598 176.859 30.5047 176.486 30.5047H175.366L175.246 30.2247L175.446 28.1447C175.766 28.1714 176.366 28.198 177.246 28.2247C178.126 28.2514 179.019 28.2647 179.926 28.2647C180.806 28.2647 181.633 28.2514 182.406 28.2247C183.179 28.1714 183.699 28.1314 183.966 28.1047L183.806 30.3847C183.086 30.4914 182.566 30.6914 182.246 30.9847C181.953 31.278 181.793 31.7314 181.766 32.3447L181.286 48.6247L177.326 49.0247C175.299 46.038 173.393 43.318 171.606 40.8647C169.846 38.3847 168.726 36.8114 168.246 36.1447H167.886V44.6647C167.886 45.2247 167.966 45.6114 168.126 45.8247C168.313 46.038 168.619 46.1447 169.046 46.1447C169.286 46.1447 169.539 46.1314 169.806 46.1047C170.099 46.078 170.299 46.0647 170.406 46.0647L170.606 46.2647L170.246 48.4247C169.926 48.4247 169.326 48.398 168.446 48.3447C167.566 48.318 166.699 48.3047 165.846 48.3047C165.073 48.3047 164.233 48.3314 163.326 48.3847C162.446 48.4647 161.873 48.518 161.606 48.5447L161.886 46.2647C162.553 46.1847 163.033 45.998 163.326 45.7047C163.619 45.4114 163.779 44.9447 163.806 44.3047L164.246 32.3847C164.246 31.718 164.073 31.2647 163.726 31.0247C163.379 30.758 162.673 30.558 161.606 30.4247L161.326 30.1047L161.566 28.1047C161.806 28.1314 162.353 28.1714 163.206 28.2247C164.059 28.2514 164.846 28.2647 165.566 28.2647C166.339 28.2647 167.046 28.2514 167.686 28.2247C168.326 28.198 168.753 28.1714 168.966 28.1447C170.619 30.7314 172.286 33.2247 173.966 35.6247C175.673 37.998 176.779 39.518 177.286 40.1847H177.646L177.566 31.8247ZM199.65 48.9447C197.65 42.598 195.57 36.358 193.41 30.2247H193.09C193.09 30.518 193.036 31.4914 192.93 33.1447C192.823 34.798 192.73 36.1714 192.65 37.2647C192.33 41.7447 192.17 44.158 192.17 44.5047C192.17 45.358 192.596 45.7847 193.45 45.7847L194.81 45.7447L195.05 45.9447L194.61 48.4647C192.37 48.358 190.81 48.3047 189.93 48.3047C189.316 48.3047 188.57 48.3447 187.69 48.4247C186.836 48.5047 186.263 48.5714 185.97 48.6247L186.21 46.0247C186.983 45.9447 187.543 45.7047 187.89 45.3047C188.236 44.878 188.49 44.158 188.65 43.1447C188.89 41.0647 189.21 37.958 189.61 33.8247C190.036 29.6914 190.25 27.4247 190.25 27.0247C190.25 26.3047 190.036 25.8114 189.61 25.5447C189.21 25.278 188.41 25.0914 187.21 24.9847L187.01 24.7447L187.37 22.4247C189.556 22.558 191.223 22.6247 192.37 22.6247C192.956 22.6247 194.37 22.5714 196.61 22.4647C197.676 26.2247 199.156 31.118 201.05 37.1447L201.73 39.2247H202.05C202.21 38.6914 202.423 38.0247 202.69 37.2247C202.956 36.398 203.236 35.518 203.53 34.5847C204.89 30.5314 206.183 26.5314 207.41 22.5847C207.97 22.5847 208.423 22.598 208.77 22.6247L210.89 22.6647L212.13 22.6247C212.69 22.6247 213.41 22.598 214.29 22.5447C215.17 22.4914 215.81 22.438 216.21 22.3847L216.37 22.5447L216.13 24.9447C214.983 25.0514 214.196 25.2514 213.77 25.5447C213.37 25.838 213.17 26.3447 213.17 27.0647C213.17 27.8914 213.276 29.998 213.49 33.3847C213.703 36.7447 213.916 39.6514 214.13 42.1047C214.29 43.5714 214.49 44.558 214.73 45.0647C214.996 45.5447 215.45 45.7847 216.09 45.7847C216.383 45.7847 216.623 45.7714 216.81 45.7447C217.023 45.718 217.156 45.7047 217.21 45.7047L217.37 45.9047L217.01 48.4247C216.61 48.4247 216.25 48.4114 215.93 48.3847C214.756 48.3314 213.77 48.3047 212.97 48.3047C212.196 48.3047 211.17 48.3447 209.89 48.4247C208.636 48.5047 207.77 48.5714 207.29 48.6247L207.57 46.0247C208.37 45.918 208.943 45.718 209.29 45.4247C209.636 45.1047 209.81 44.638 209.81 44.0247C209.81 43.918 209.703 42.2647 209.49 39.0647C209.196 34.878 209.023 31.9314 208.97 30.2247H208.61C206.37 36.4647 204.29 42.5847 202.37 48.5847L199.65 48.9447ZM229.723 48.3047L229.883 46.2247C230.656 46.1447 231.203 46.078 231.523 46.0247C231.843 45.9447 232.056 45.838 232.163 45.7047C232.296 45.5714 232.363 45.3714 232.363 45.1047C232.363 44.8114 232.309 44.5047 232.203 44.1847L231.643 42.1047C231.083 42.078 230.109 42.0647 228.723 42.0647C228.109 42.0647 227.096 42.1314 225.683 42.2647L224.963 44.3447C224.856 44.7447 224.803 45.038 224.803 45.2247C224.803 45.5714 224.896 45.8114 225.083 45.9447C225.296 46.0514 225.683 46.1047 226.243 46.1047H227.483L227.683 46.3847L227.443 48.4647C227.123 48.438 226.443 48.398 225.403 48.3447C224.389 48.318 223.443 48.3047 222.563 48.3047C221.629 48.3047 220.776 48.318 220.003 48.3447C219.256 48.3714 218.763 48.3847 218.523 48.3847L218.763 46.1447C219.243 46.0647 219.629 45.878 219.923 45.5847C220.243 45.2647 220.536 44.798 220.803 44.1847L226.563 28.4247L232.443 27.9047L232.843 28.1447C233.163 29.3447 233.843 31.798 234.883 35.5047C235.923 39.2114 236.776 42.0514 237.443 44.0247C237.656 44.7447 237.936 45.2647 238.283 45.5847C238.656 45.9047 239.189 46.0914 239.883 46.1447L240.043 46.3847L239.803 48.3847C239.509 48.3847 238.949 48.3714 238.123 48.3447C237.323 48.318 236.496 48.3047 235.643 48.3047C234.443 48.3047 233.269 48.3314 232.123 48.3847C230.976 48.4647 230.243 48.518 229.923 48.5447L229.723 48.3047ZM228.723 39.2647C229.603 39.2647 230.376 39.2247 231.043 39.1447L229.243 32.6647H228.763L226.563 39.2647H228.723ZM257.56 48.7847C256.014 48.7847 254.8 47.8247 253.92 45.9047L251.24 40.6647H249L248.96 43.7447C248.96 44.4647 249.014 44.9847 249.12 45.3047C249.227 45.598 249.427 45.798 249.72 45.9047C250.04 46.0114 250.574 46.078 251.32 46.1047L251.48 46.3047L251.12 48.4247C250.694 48.398 249.934 48.3714 248.84 48.3447C247.774 48.3447 246.84 48.3447 246.04 48.3447C245.187 48.3447 244.307 48.3714 243.4 48.4247C242.494 48.478 241.907 48.518 241.64 48.5447L241.92 46.2247C242.827 46.118 243.427 45.8914 243.72 45.5447C244.04 45.1714 244.2 44.5447 244.2 43.6647L244.24 31.9447C244.24 31.3847 244.16 31.0114 244 30.8247C243.867 30.6114 243.614 30.5047 243.24 30.5047L242.08 30.5447L241.84 30.2647L242.16 28.2247L246.4 28.2647C247.334 28.2647 248.334 28.2514 249.4 28.2247C250.467 28.1714 251.214 28.1314 251.64 28.1047C254.28 28.1047 256.294 28.5714 257.68 29.5047C259.067 30.438 259.76 31.798 259.76 33.5847C259.76 34.8114 259.387 35.9314 258.64 36.9447C257.894 37.958 256.814 38.8114 255.4 39.5047L258.08 43.6247C258.72 44.558 259.32 45.238 259.88 45.6647C260.44 46.0914 261.04 46.3047 261.68 46.3047L261.96 46.6647L261.68 48.4647L257.56 48.7847ZM251.96 37.8647C253.747 37.2247 254.64 35.998 254.64 34.1847C254.64 33.118 254.254 32.3314 253.48 31.8247C252.707 31.2914 251.52 31.0247 249.92 31.0247C249.707 31.0247 249.56 31.078 249.48 31.1847C249.427 31.2647 249.387 31.4514 249.36 31.7447C249.2 33.9314 249.12 35.8647 249.12 37.5447L251.96 37.8647ZM266.429 46.2247C267.442 46.1447 268.176 46.0247 268.629 45.8647C269.082 45.678 269.376 45.398 269.509 45.0247C269.669 44.6247 269.749 43.998 269.749 43.1447V31.0647C268.682 31.0914 267.909 31.198 267.429 31.3847C266.976 31.5714 266.642 31.9314 266.429 32.4647C266.216 32.998 266.029 33.9047 265.869 35.1847L262.829 35.3847C262.856 34.9314 262.909 33.9714 262.989 32.5047C263.096 31.0114 263.162 29.6114 263.189 28.3047L263.589 27.9047L266.989 28.2647H277.309L280.789 27.9047L281.189 28.3047C281.216 29.6647 281.256 31.0514 281.309 32.4647C281.389 33.878 281.442 34.7847 281.469 35.1847L278.429 35.3847C278.269 33.998 278.082 33.0247 277.869 32.4647C277.682 31.9047 277.376 31.5447 276.949 31.3847C276.522 31.198 275.802 31.0914 274.789 31.0647C274.576 34.1047 274.469 38.3847 274.469 43.9047C274.469 44.678 274.602 45.2247 274.869 45.5447C275.136 45.8647 275.602 46.0247 276.269 46.0247C276.696 46.0247 277.069 46.0114 277.389 45.9847C277.709 45.958 277.909 45.9447 277.989 45.9447L278.109 46.1047L277.829 48.4647C277.376 48.438 276.549 48.398 275.349 48.3447C274.149 48.318 273.002 48.3047 271.909 48.3047C271.136 48.3047 270.096 48.3314 268.789 48.3847C267.482 48.4647 266.616 48.518 266.189 48.5447L266.429 46.2247Z" fill="white"/>
</svg>
