<svg width="20" height="18" viewBox="0 0 20 18" fill="none" xmlns="http://www.w3.org/2000/svg">
<path d="M7.71817 17.72C7.13071 17.72 6.56732 17.4867 6.15192 17.0713C5.73653 16.6559 5.50316 16.0925 5.50316 15.505C5.50316 14.9176 5.73653 14.3542 6.15192 13.9388C6.56732 13.5234 7.13071 13.29 7.71817 13.29C8.30562 13.29 8.86902 13.5234 9.28441 13.9388C9.6998 14.3542 9.93317 14.9176 9.93317 15.505C9.93317 16.0925 9.6998 16.6559 9.28441 17.0713C8.86902 17.4867 8.30562 17.72 7.71817 17.72ZM15.4707 17.72C14.8832 17.72 14.3198 17.4867 13.9044 17.0713C13.489 16.6559 13.2557 16.0925 13.2557 15.505C13.2557 14.9176 13.489 14.3542 13.9044 13.9388C14.3198 13.5234 14.8832 13.29 15.4707 13.29C16.0581 13.29 16.6215 13.5234 17.0369 13.9388C17.4523 14.3542 17.6857 14.9176 17.6857 15.505C17.6857 16.0925 17.4523 16.6559 17.0369 17.0713C16.6215 17.4867 16.0581 17.72 15.4707 17.72ZM1.03107 2.12973C0.754596 2.12081 0.492427 2.00471 0.300007 1.80598C0.107586 1.60726 0 1.34148 0 1.06486C0 0.788244 0.107586 0.522469 0.300007 0.323742C0.492427 0.125015 0.754596 0.0089174 1.03107 0L2.30581 0C3.30477 0 4.16862 0.693296 4.38569 1.6679L5.77339 7.91642C5.99046 8.89102 6.85432 9.58432 7.85328 9.58432H16.1728L17.7699 3.19404H7.42025C7.14638 3.18154 6.88786 3.06395 6.69847 2.86572C6.50908 2.66749 6.4034 2.40388 6.4034 2.12973C6.4034 1.85557 6.50908 1.59196 6.69847 1.39373C6.88786 1.19551 7.14638 1.07791 7.42025 1.06542H17.7699C18.0936 1.06532 18.4131 1.13904 18.7041 1.28097C18.9951 1.42291 19.2499 1.62931 19.4492 1.88451C19.6484 2.1397 19.7868 2.43696 19.854 2.75369C19.9211 3.07042 19.9151 3.39828 19.8365 3.71235L18.2394 10.1004C18.1243 10.5614 17.8584 10.9706 17.4839 11.263C17.1094 11.5553 16.6479 11.7141 16.1728 11.714H7.85328C6.88399 11.7142 5.94364 11.3837 5.18754 10.7772C4.43144 10.1707 3.9048 9.32448 3.69461 8.37825L2.30581 2.12973H1.03107Z" fill="#181725"/>
</svg>
