<svg width="22" height="22" viewBox="0 0 22 22" fill="none" xmlns="http://www.w3.org/2000/svg">
<g clip-path="url(#clip0_1_273)">
<path d="M4.25197 9.97257L11.339 17.0596L18.4261 9.97257C19.0526 9.34598 19.4047 8.49615 19.4047 7.61003C19.4047 6.72391 19.0526 5.87408 18.4261 5.2475C18.1158 4.93724 17.7475 4.69114 17.3421 4.52323C16.9368 4.35532 16.5023 4.2689 16.0635 4.2689C15.1774 4.2689 14.3276 4.62091 13.701 5.2475L11.339 7.60947L8.97704 5.24861C8.34886 4.63043 7.50186 4.28552 6.62053 4.28901C5.7392 4.29249 4.89495 4.64409 4.27168 5.26721C3.64841 5.89034 3.29661 6.7345 3.29292 7.61583C3.28923 8.49716 3.63394 9.34424 4.25197 9.97257ZM10.5517 3.67173L11.339 4.45906L12.1263 3.67173C12.6426 3.15097 13.2566 2.7373 13.9331 2.45447C14.6096 2.17164 15.3353 2.02522 16.0686 2.02361C16.8018 2.02201 17.5282 2.16525 18.2059 2.44511C18.8837 2.72498 19.4995 3.13596 20.018 3.65445C20.5365 4.17295 20.9475 4.78875 21.2273 5.4665C21.5072 6.14425 21.6504 6.87061 21.6488 7.60387C21.6472 8.33713 21.5008 9.06285 21.218 9.73937C20.9351 10.4159 20.5215 11.0299 20.0007 11.5461L12.1275 19.4205C12.024 19.524 11.9012 19.6062 11.766 19.6622C11.6308 19.7182 11.4859 19.7471 11.3396 19.7471C11.1932 19.7471 11.0483 19.7182 10.9131 19.6622C10.7779 19.6062 10.6551 19.524 10.5517 19.4205L2.67732 11.5472C2.14947 11.0327 1.72906 10.4184 1.44045 9.74011C1.15185 9.06181 1.00081 8.33295 0.996086 7.59582C0.991363 6.85868 1.13305 6.12795 1.41294 5.446C1.69283 4.76406 2.10534 4.14447 2.62654 3.6232C3.14775 3.10192 3.76728 2.68932 4.44918 2.40933C5.13109 2.12935 5.8618 1.98756 6.59894 1.99217C7.33607 1.99679 8.06495 2.14773 8.74329 2.43624C9.42164 2.72475 10.0359 3.14508 10.5506 3.67285L10.5517 3.67173Z" fill="#181725"/>
</g>
<defs>
<clipPath id="clip0_1_273">
<rect width="21.7391" height="21.7391" fill="white"/>
</clipPath>
</defs>
</svg>
