<svg width="22" height="22" viewBox="0 0 22 22" fill="none" xmlns="http://www.w3.org/2000/svg">
<path d="M4.52942 1.85657H17.2101C17.9188 1.85657 18.5986 2.13865 19.0997 2.63977C19.6008 3.14087 19.882 3.8208 19.882 4.52942V6.34094C19.8819 7.12644 19.5437 7.83342 19.0031 8.32239L18.9884 8.33606V18.0841C18.9884 18.5526 18.8021 19.0019 18.4708 19.3331C18.1396 19.6644 17.6903 19.8507 17.2218 19.8507H10.3019V19.8497L10.2931 19.8517C10.1846 19.8722 10.0744 19.8819 9.96399 19.882H8.15247C8.04192 19.8819 7.93101 19.8722 7.82239 19.8517L7.82336 19.8507H4.53918C4.07073 19.8507 3.62141 19.6644 3.29016 19.3331C2.95892 19.0019 2.77258 18.5526 2.77258 18.0841V8.26477L2.72473 8.31165C2.45651 8.0665 2.24109 7.7693 2.09192 7.43762C1.93685 7.0928 1.85608 6.71903 1.85657 6.34094V4.52942C1.85657 3.82073 2.13866 3.14089 2.63977 2.63977C3.14089 2.13865 3.82073 1.85657 4.52942 1.85657ZM13.5568 8.33215C13.0674 8.77113 12.4329 9.01372 11.7755 9.01282H9.96399C9.27994 9.01282 8.6548 8.75518 8.18274 8.33215L8.15247 8.30481L8.12219 8.33215C7.63288 8.77108 6.99827 9.01366 6.34094 9.01282H4.49329V18.13H6.38586V13.587C6.38586 13.1186 6.5722 12.6693 6.90344 12.338C7.23468 12.0068 7.68406 11.8204 8.15247 11.8204H9.96399C10.4324 11.8205 10.8818 12.0068 11.213 12.338C11.5442 12.6692 11.7306 13.1186 11.7306 13.587V18.13H17.2677V9.01282H15.3986C14.7145 9.01281 14.0894 8.75522 13.6173 8.33215L13.587 8.30481L13.5568 8.33215ZM8.10657 18.13H9.96399V18.0851H10.0089V13.5421H8.10657V18.13ZM14.4933 11.8204H15.3986C15.6267 11.8204 15.8456 11.9112 16.007 12.0724C16.1682 12.2337 16.2588 12.4527 16.2589 12.6808V15.3986C16.2589 15.6268 16.1683 15.8456 16.007 16.007C15.8456 16.1683 15.6268 16.2589 15.3986 16.2589H14.4933C14.2651 16.2589 14.0453 16.1683 13.8839 16.007C13.7227 15.8456 13.632 15.6267 13.632 15.3986V12.6808C13.6321 12.4527 13.7227 12.2337 13.8839 12.0724C14.0453 11.911 14.2651 11.8204 14.4933 11.8204ZM4.52942 3.57825C4.27718 3.57825 4.03493 3.6782 3.85657 3.85657C3.6782 4.03493 3.57825 4.27718 3.57825 4.52942V6.34094C3.57833 6.59301 3.67837 6.83454 3.85657 7.01282C4.03493 7.19118 4.27718 7.29211 4.52942 7.29211H6.34094C6.59307 7.29203 6.83453 7.19111 7.01282 7.01282C7.19111 6.83453 7.29203 6.59307 7.29211 6.34094V3.57825H4.52942ZM9.01282 6.34094C9.0129 6.59296 9.113 6.83455 9.29114 7.01282C9.4695 7.19118 9.71175 7.29211 9.96399 7.29211H11.7755C12.0277 7.29209 12.27 7.19116 12.4484 7.01282C12.6264 6.83456 12.7266 6.59289 12.7267 6.34094V3.57825H9.01282V6.34094ZM14.4474 6.34094C14.4475 6.59291 14.5476 6.83456 14.7257 7.01282C14.9041 7.19117 15.1463 7.2921 15.3986 7.29211H17.2101C17.4623 7.29211 17.7046 7.19118 17.8829 7.01282C18.0611 6.83455 18.1612 6.59295 18.1613 6.34094V4.52942C18.1613 4.27724 18.0612 4.03492 17.8829 3.85657C17.7046 3.6782 17.4623 3.57825 17.2101 3.57825H14.4474V6.34094Z" fill="#181725" stroke="white" stroke-width="0.0905797"/>
</svg>
