<svg width="22" height="22" viewBox="0 0 22 22" fill="none" xmlns="http://www.w3.org/2000/svg">
<path d="M7.27336 10.933C7.40092 10.8855 7.5381 10.8608 7.67679 10.8604C7.81547 10.8599 7.95285 10.8838 8.0808 10.9305C8.20876 10.9772 8.32468 11.0458 8.42173 11.1323C8.51878 11.2188 8.59498 11.3214 8.64583 11.434C8.69668 11.5467 8.72114 11.6671 8.71777 11.7881C8.71441 11.9092 8.68328 12.0284 8.62623 12.1388C8.56918 12.2491 8.48736 12.3484 8.38562 12.4307C8.28388 12.5129 8.16428 12.5766 8.03388 12.6178C7.34033 12.8564 6.74507 13.2717 6.32557 13.8096C5.90607 14.3476 5.68174 14.9833 5.68177 15.6341V17.2102C5.68177 17.4504 5.79108 17.6808 5.98566 17.8507C6.18024 18.0206 6.44414 18.116 6.71931 18.116H15.0196C15.2948 18.116 15.5587 18.0206 15.7533 17.8507C15.9479 17.6808 16.0572 17.4504 16.0572 17.2102V15.7183C16.0573 15.0467 15.8236 14.3908 15.387 13.8378C14.9505 13.2847 14.3317 12.8605 13.6127 12.6214C13.4815 12.5817 13.3608 12.5193 13.2577 12.4381C13.1546 12.3569 13.0712 12.2584 13.0125 12.1485C12.9539 12.0386 12.921 11.9195 12.916 11.7984C12.911 11.6772 12.9339 11.5564 12.9834 11.4431C13.0328 11.3298 13.1079 11.2263 13.204 11.1388C13.3001 11.0513 13.4154 10.9815 13.543 10.9336C13.6705 10.8857 13.8078 10.8606 13.9467 10.8599C14.0856 10.8592 14.2232 10.8828 14.3515 10.9294C15.4633 11.2991 16.4202 11.9551 17.0954 12.8103C17.7706 13.6655 18.1322 14.6797 18.1323 15.7183V17.2102C18.1323 17.9309 17.8043 18.6221 17.2206 19.1317C16.6369 19.6413 15.8452 19.9276 15.0196 19.9276H6.71931C5.89379 19.9276 5.10209 19.6413 4.51836 19.1317C3.93463 18.6221 3.60669 17.9309 3.60669 17.2102L3.60669 15.6341C3.60683 14.6198 3.95663 13.6289 4.61057 12.7905C5.26452 11.9521 6.19235 11.3048 7.27336 10.933ZM10.8695 1.81165C11.9702 1.81165 13.0258 2.19337 13.8041 2.87285C14.5824 3.55233 15.0196 4.4739 15.0196 5.43483V7.24643C15.0196 8.20736 14.5824 9.12893 13.8041 9.80841C13.0258 10.4879 11.9702 10.8696 10.8695 10.8696C9.76879 10.8696 8.71318 10.4879 7.93487 9.80841C7.15656 9.12893 6.71931 8.20736 6.71931 7.24643V5.43483C6.71931 4.4739 7.15656 3.55233 7.93487 2.87285C8.71318 2.19337 9.76879 1.81165 10.8695 1.81165ZM10.8695 3.62324C10.3191 3.62324 9.79133 3.8141 9.40217 4.15384C9.01302 4.49358 8.7944 4.95437 8.7944 5.43483V7.24643C8.7944 7.72689 9.01302 8.18768 9.40217 8.52742C9.79133 8.86716 10.3191 9.05802 10.8695 9.05802C11.4198 9.05802 11.9476 8.86716 12.3368 8.52742C12.7259 8.18768 12.9446 7.72689 12.9446 7.24643V5.43483C12.9446 4.95437 12.7259 4.49358 12.3368 4.15384C11.9476 3.8141 11.4198 3.62324 10.8695 3.62324Z" fill="#181725"/>
</svg>
